<mxfile host="Electron" modified="2023-10-27T00:38:36.237Z" agent="Mozilla/5.0 (Windows NT 10.0; Win64; x64) AppleWebKit/537.36 (KHTML, like Gecko) draw.io/22.0.2 Chrome/114.0.5735.289 Electron/25.8.4 Safari/537.36" etag="naRWlop2fkuXx2T60ULV" version="22.0.2" type="device">
  <diagram name="Página-1" id="8dC4T3Oz5jPkKh5Ns8to">
    <mxGraphModel dx="1863" dy="606" grid="1" gridSize="10" guides="1" tooltips="1" connect="1" arrows="1" fold="1" page="1" pageScale="1" pageWidth="827" pageHeight="1169" math="0" shadow="0">
      <root>
        <mxCell id="0" />
        <mxCell id="1" parent="0" />
        <mxCell id="WSo22nkgQn30hINGjkoU-2" value="ELECTORES" style="whiteSpace=wrap;html=1;align=center;" parent="1" vertex="1">
          <mxGeometry x="140" y="180" width="100" height="40" as="geometry" />
        </mxCell>
        <mxCell id="WSo22nkgQn30hINGjkoU-3" value="VOTACIONES" style="whiteSpace=wrap;html=1;align=center;" parent="1" vertex="1">
          <mxGeometry x="610" y="360" width="100" height="40" as="geometry" />
        </mxCell>
        <mxCell id="WSo22nkgQn30hINGjkoU-4" value="POLITICOS" style="whiteSpace=wrap;html=1;align=center;" parent="1" vertex="1">
          <mxGeometry x="140" y="405" width="100" height="40" as="geometry" />
        </mxCell>
        <mxCell id="WSo22nkgQn30hINGjkoU-5" value="LISTAS" style="whiteSpace=wrap;html=1;align=center;" parent="1" vertex="1">
          <mxGeometry x="630" y="210" width="100" height="40" as="geometry" />
        </mxCell>
        <mxCell id="WSo22nkgQn30hINGjkoU-6" value="&lt;u&gt;DNI&lt;/u&gt;" style="ellipse;whiteSpace=wrap;html=1;align=center;" parent="1" vertex="1">
          <mxGeometry x="-10" y="130" width="100" height="40" as="geometry" />
        </mxCell>
        <mxCell id="WSo22nkgQn30hINGjkoU-7" value="nombre_completo" style="ellipse;whiteSpace=wrap;html=1;align=center;" parent="1" vertex="1">
          <mxGeometry x="20" y="70" width="100" height="40" as="geometry" />
        </mxCell>
        <mxCell id="WSo22nkgQn30hINGjkoU-8" value="direccion_completa" style="ellipse;whiteSpace=wrap;html=1;align=center;" parent="1" vertex="1">
          <mxGeometry x="140" y="70" width="100" height="40" as="geometry" />
        </mxCell>
        <mxCell id="WSo22nkgQn30hINGjkoU-9" value="&lt;u&gt;circunscripcion&lt;/u&gt;" style="ellipse;whiteSpace=wrap;html=1;align=center;" parent="1" vertex="1">
          <mxGeometry x="280" y="100" width="100" height="40" as="geometry" />
        </mxCell>
        <mxCell id="WSo22nkgQn30hINGjkoU-10" value="provincia" style="ellipse;whiteSpace=wrap;html=1;align=center;" parent="1" vertex="1">
          <mxGeometry x="330" y="10" width="100" height="40" as="geometry" />
        </mxCell>
        <mxCell id="WSo22nkgQn30hINGjkoU-11" value="nombre" style="ellipse;whiteSpace=wrap;html=1;align=center;" parent="1" vertex="1">
          <mxGeometry x="10" y="310" width="100" height="40" as="geometry" />
        </mxCell>
        <mxCell id="WSo22nkgQn30hINGjkoU-12" value="partido_politico" style="ellipse;whiteSpace=wrap;html=1;align=center;" parent="1" vertex="1">
          <mxGeometry y="360" width="100" height="40" as="geometry" />
        </mxCell>
        <mxCell id="WSo22nkgQn30hINGjkoU-13" value="ideologia" style="ellipse;whiteSpace=wrap;html=1;align=center;" parent="1" vertex="1">
          <mxGeometry y="410" width="100" height="40" as="geometry" />
        </mxCell>
        <mxCell id="WSo22nkgQn30hINGjkoU-14" value="Senado" style="ellipse;whiteSpace=wrap;html=1;align=center;" parent="1" vertex="1">
          <mxGeometry x="60" y="470" width="100" height="40" as="geometry" />
        </mxCell>
        <mxCell id="WSo22nkgQn30hINGjkoU-15" value="Congreso" style="ellipse;whiteSpace=wrap;html=1;align=center;" parent="1" vertex="1">
          <mxGeometry x="455" y="400" width="100" height="40" as="geometry" />
        </mxCell>
        <mxCell id="WSo22nkgQn30hINGjkoU-17" value="direccion postal" style="ellipse;whiteSpace=wrap;html=1;align=center;" parent="1" vertex="1">
          <mxGeometry x="100" y="10" width="100" height="40" as="geometry" />
        </mxCell>
        <mxCell id="WSo22nkgQn30hINGjkoU-18" value="codigo_postal" style="ellipse;whiteSpace=wrap;html=1;align=center;" parent="1" vertex="1">
          <mxGeometry x="214" width="100" height="40" as="geometry" />
        </mxCell>
        <mxCell id="WSo22nkgQn30hINGjkoU-19" value="localidad" style="ellipse;whiteSpace=wrap;html=1;align=center;" parent="1" vertex="1">
          <mxGeometry x="290" y="50" width="100" height="40" as="geometry" />
        </mxCell>
        <mxCell id="WSo22nkgQn30hINGjkoU-20" value="" style="endArrow=none;html=1;rounded=0;exitX=0.592;exitY=-0.015;exitDx=0;exitDy=0;exitPerimeter=0;entryX=0;entryY=1;entryDx=0;entryDy=0;" parent="1" source="WSo22nkgQn30hINGjkoU-8" target="WSo22nkgQn30hINGjkoU-18" edge="1">
          <mxGeometry width="50" height="50" relative="1" as="geometry">
            <mxPoint x="210" y="80" as="sourcePoint" />
            <mxPoint x="260" y="30" as="targetPoint" />
          </mxGeometry>
        </mxCell>
        <mxCell id="WSo22nkgQn30hINGjkoU-21" value="" style="endArrow=none;html=1;rounded=0;entryX=-0.032;entryY=0.715;entryDx=0;entryDy=0;entryPerimeter=0;exitX=1;exitY=0;exitDx=0;exitDy=0;" parent="1" source="WSo22nkgQn30hINGjkoU-8" target="WSo22nkgQn30hINGjkoU-10" edge="1">
          <mxGeometry width="50" height="50" relative="1" as="geometry">
            <mxPoint x="270" y="80" as="sourcePoint" />
            <mxPoint x="320" y="30" as="targetPoint" />
          </mxGeometry>
        </mxCell>
        <mxCell id="WSo22nkgQn30hINGjkoU-22" value="" style="endArrow=none;html=1;rounded=0;exitX=1;exitY=0.5;exitDx=0;exitDy=0;entryX=0.056;entryY=0.845;entryDx=0;entryDy=0;entryPerimeter=0;" parent="1" source="WSo22nkgQn30hINGjkoU-8" target="WSo22nkgQn30hINGjkoU-19" edge="1">
          <mxGeometry width="50" height="50" relative="1" as="geometry">
            <mxPoint x="260" y="130" as="sourcePoint" />
            <mxPoint x="310" y="80" as="targetPoint" />
          </mxGeometry>
        </mxCell>
        <mxCell id="WSo22nkgQn30hINGjkoU-23" value="" style="endArrow=none;html=1;rounded=0;exitX=1;exitY=1;exitDx=0;exitDy=0;entryX=0.026;entryY=0.335;entryDx=0;entryDy=0;entryPerimeter=0;" parent="1" source="WSo22nkgQn30hINGjkoU-8" target="WSo22nkgQn30hINGjkoU-9" edge="1">
          <mxGeometry width="50" height="50" relative="1" as="geometry">
            <mxPoint x="260" y="130" as="sourcePoint" />
            <mxPoint x="295" y="134" as="targetPoint" />
          </mxGeometry>
        </mxCell>
        <mxCell id="WSo22nkgQn30hINGjkoU-24" value="" style="endArrow=none;html=1;rounded=0;exitX=0.232;exitY=0.085;exitDx=0;exitDy=0;exitPerimeter=0;entryX=0.5;entryY=1;entryDx=0;entryDy=0;" parent="1" source="WSo22nkgQn30hINGjkoU-8" target="WSo22nkgQn30hINGjkoU-17" edge="1">
          <mxGeometry width="50" height="50" relative="1" as="geometry">
            <mxPoint x="165" y="90" as="sourcePoint" />
            <mxPoint x="215" y="40" as="targetPoint" />
          </mxGeometry>
        </mxCell>
        <mxCell id="WSo22nkgQn30hINGjkoU-26" value="" style="endArrow=none;html=1;rounded=0;exitX=0.176;exitY=-0.025;exitDx=0;exitDy=0;exitPerimeter=0;entryX=0.748;entryY=0.975;entryDx=0;entryDy=0;entryPerimeter=0;" parent="1" source="WSo22nkgQn30hINGjkoU-2" target="WSo22nkgQn30hINGjkoU-6" edge="1">
          <mxGeometry width="50" height="50" relative="1" as="geometry">
            <mxPoint x="35" y="180" as="sourcePoint" />
            <mxPoint x="80" y="130" as="targetPoint" />
          </mxGeometry>
        </mxCell>
        <mxCell id="WSo22nkgQn30hINGjkoU-27" value="" style="endArrow=none;html=1;rounded=0;entryX=0.772;entryY=1.005;entryDx=0;entryDy=0;entryPerimeter=0;exitX=0.376;exitY=-0.005;exitDx=0;exitDy=0;exitPerimeter=0;" parent="1" source="WSo22nkgQn30hINGjkoU-2" target="WSo22nkgQn30hINGjkoU-7" edge="1">
          <mxGeometry width="50" height="50" relative="1" as="geometry">
            <mxPoint x="100" y="190" as="sourcePoint" />
            <mxPoint x="150" y="140" as="targetPoint" />
          </mxGeometry>
        </mxCell>
        <mxCell id="WSo22nkgQn30hINGjkoU-28" value="" style="endArrow=none;html=1;rounded=0;entryX=0.5;entryY=1;entryDx=0;entryDy=0;exitX=0.832;exitY=0.015;exitDx=0;exitDy=0;exitPerimeter=0;" parent="1" source="WSo22nkgQn30hINGjkoU-2" target="WSo22nkgQn30hINGjkoU-8" edge="1">
          <mxGeometry width="50" height="50" relative="1" as="geometry">
            <mxPoint x="280" y="280" as="sourcePoint" />
            <mxPoint x="330" y="230" as="targetPoint" />
          </mxGeometry>
        </mxCell>
        <mxCell id="WSo22nkgQn30hINGjkoU-30" value="&lt;u&gt;ID&lt;/u&gt;" style="ellipse;whiteSpace=wrap;html=1;align=center;" parent="1" vertex="1">
          <mxGeometry x="290" y="260" width="100" height="40" as="geometry" />
        </mxCell>
        <mxCell id="WSo22nkgQn30hINGjkoU-31" value="contraseña" style="ellipse;whiteSpace=wrap;html=1;align=center;" parent="1" vertex="1">
          <mxGeometry x="400" y="270" width="100" height="40" as="geometry" />
        </mxCell>
        <mxCell id="WSo22nkgQn30hINGjkoU-32" value="Votan" style="shape=rhombus;perimeter=rhombusPerimeter;whiteSpace=wrap;html=1;align=center;" parent="1" vertex="1">
          <mxGeometry x="359" y="200" width="110" height="50" as="geometry" />
        </mxCell>
        <mxCell id="WSo22nkgQn30hINGjkoU-33" value="se presentan" style="shape=rhombus;perimeter=rhombusPerimeter;whiteSpace=wrap;html=1;align=center;" parent="1" vertex="1">
          <mxGeometry x="130" y="260" width="120" height="60" as="geometry" />
        </mxCell>
        <mxCell id="WSo22nkgQn30hINGjkoU-35" value="" style="endArrow=none;html=1;rounded=0;entryX=0;entryY=0.5;entryDx=0;entryDy=0;exitX=1;exitY=0.5;exitDx=0;exitDy=0;" parent="1" source="WSo22nkgQn30hINGjkoU-2" target="WSo22nkgQn30hINGjkoU-32" edge="1">
          <mxGeometry width="50" height="50" relative="1" as="geometry">
            <mxPoint x="330" y="350" as="sourcePoint" />
            <mxPoint x="380" y="300" as="targetPoint" />
          </mxGeometry>
        </mxCell>
        <mxCell id="WSo22nkgQn30hINGjkoU-36" value="" style="endArrow=none;html=1;rounded=0;entryX=0;entryY=0.5;entryDx=0;entryDy=0;exitX=1;exitY=0.5;exitDx=0;exitDy=0;" parent="1" source="WSo22nkgQn30hINGjkoU-32" target="WSo22nkgQn30hINGjkoU-5" edge="1">
          <mxGeometry width="50" height="50" relative="1" as="geometry">
            <mxPoint x="440" y="320" as="sourcePoint" />
            <mxPoint x="490" y="270" as="targetPoint" />
          </mxGeometry>
        </mxCell>
        <mxCell id="WSo22nkgQn30hINGjkoU-38" value="PARTIDOS POLITICOS" style="whiteSpace=wrap;html=1;align=center;" parent="1" vertex="1">
          <mxGeometry x="380" y="460" width="100" height="40" as="geometry" />
        </mxCell>
        <mxCell id="WSo22nkgQn30hINGjkoU-39" value="nombre_lista" style="ellipse;whiteSpace=wrap;html=1;align=center;" parent="1" vertex="1">
          <mxGeometry x="650" y="90" width="100" height="40" as="geometry" />
        </mxCell>
        <mxCell id="WSo22nkgQn30hINGjkoU-40" value="&lt;u&gt;circunscipcion&lt;/u&gt;" style="ellipse;whiteSpace=wrap;html=1;align=center;" parent="1" vertex="1">
          <mxGeometry x="720" y="140" width="100" height="40" as="geometry" />
        </mxCell>
        <mxCell id="WSo22nkgQn30hINGjkoU-42" value="" style="endArrow=none;html=1;rounded=0;exitX=0.3;exitY=0;exitDx=0;exitDy=0;exitPerimeter=0;entryX=0.5;entryY=1;entryDx=0;entryDy=0;" parent="1" source="WSo22nkgQn30hINGjkoU-5" target="WSo22nkgQn30hINGjkoU-39" edge="1">
          <mxGeometry width="50" height="50" relative="1" as="geometry">
            <mxPoint x="680" y="115" as="sourcePoint" />
            <mxPoint x="650" y="70" as="targetPoint" />
          </mxGeometry>
        </mxCell>
        <mxCell id="WSo22nkgQn30hINGjkoU-43" value="" style="endArrow=none;html=1;rounded=0;exitX=0.5;exitY=0;exitDx=0;exitDy=0;entryX=0.5;entryY=1;entryDx=0;entryDy=0;" parent="1" source="WSo22nkgQn30hINGjkoU-5" target="WSo22nkgQn30hINGjkoU-40" edge="1">
          <mxGeometry width="50" height="50" relative="1" as="geometry">
            <mxPoint x="710" y="130" as="sourcePoint" />
            <mxPoint x="740" y="90" as="targetPoint" />
          </mxGeometry>
        </mxCell>
        <mxCell id="WSo22nkgQn30hINGjkoU-44" value="" style="endArrow=none;html=1;rounded=0;entryX=0;entryY=1;entryDx=0;entryDy=0;" parent="1" source="WSo22nkgQn30hINGjkoU-30" target="WSo22nkgQn30hINGjkoU-32" edge="1">
          <mxGeometry width="50" height="50" relative="1" as="geometry">
            <mxPoint x="330" y="320" as="sourcePoint" />
            <mxPoint x="420" y="220" as="targetPoint" />
          </mxGeometry>
        </mxCell>
        <mxCell id="WSo22nkgQn30hINGjkoU-45" value="" style="endArrow=none;html=1;rounded=0;exitX=0.5;exitY=0;exitDx=0;exitDy=0;entryX=0.687;entryY=0.843;entryDx=0;entryDy=0;entryPerimeter=0;" parent="1" source="WSo22nkgQn30hINGjkoU-31" target="WSo22nkgQn30hINGjkoU-32" edge="1">
          <mxGeometry width="50" height="50" relative="1" as="geometry">
            <mxPoint x="460" y="270" as="sourcePoint" />
            <mxPoint x="510" y="220" as="targetPoint" />
          </mxGeometry>
        </mxCell>
        <mxCell id="WSo22nkgQn30hINGjkoU-46" value="&lt;u&gt;circunscipcion&lt;/u&gt;" style="ellipse;whiteSpace=wrap;html=1;align=center;" parent="1" vertex="1">
          <mxGeometry y="530" width="100" height="40" as="geometry" />
        </mxCell>
        <mxCell id="WSo22nkgQn30hINGjkoU-47" value="fecha_fundicion" style="ellipse;whiteSpace=wrap;html=1;align=center;" parent="1" vertex="1">
          <mxGeometry x="260" y="580" width="100" height="40" as="geometry" />
        </mxCell>
        <mxCell id="WSo22nkgQn30hINGjkoU-48" value="" style="endArrow=none;html=1;rounded=0;entryX=0.984;entryY=0.675;entryDx=0;entryDy=0;exitX=0;exitY=0.5;exitDx=0;exitDy=0;entryPerimeter=0;" parent="1" source="WSo22nkgQn30hINGjkoU-4" target="WSo22nkgQn30hINGjkoU-12" edge="1">
          <mxGeometry width="50" height="50" relative="1" as="geometry">
            <mxPoint x="240" y="400" as="sourcePoint" />
            <mxPoint x="290" y="350" as="targetPoint" />
          </mxGeometry>
        </mxCell>
        <mxCell id="WSo22nkgQn30hINGjkoU-49" value="" style="endArrow=none;html=1;rounded=0;exitX=0;exitY=0.75;exitDx=0;exitDy=0;entryX=0.744;entryY=0.125;entryDx=0;entryDy=0;entryPerimeter=0;" parent="1" source="WSo22nkgQn30hINGjkoU-4" target="WSo22nkgQn30hINGjkoU-13" edge="1">
          <mxGeometry width="50" height="50" relative="1" as="geometry">
            <mxPoint x="400" y="470" as="sourcePoint" />
            <mxPoint x="450" y="420" as="targetPoint" />
          </mxGeometry>
        </mxCell>
        <mxCell id="WSo22nkgQn30hINGjkoU-50" value="" style="endArrow=none;html=1;rounded=0;exitX=0.25;exitY=0;exitDx=0;exitDy=0;entryX=0.5;entryY=1;entryDx=0;entryDy=0;" parent="1" source="WSo22nkgQn30hINGjkoU-4" target="WSo22nkgQn30hINGjkoU-11" edge="1">
          <mxGeometry width="50" height="50" relative="1" as="geometry">
            <mxPoint x="390" y="370" as="sourcePoint" />
            <mxPoint x="435" y="320" as="targetPoint" />
          </mxGeometry>
        </mxCell>
        <mxCell id="WSo22nkgQn30hINGjkoU-51" value="" style="endArrow=none;html=1;rounded=0;exitX=0.5;exitY=0;exitDx=0;exitDy=0;" parent="1" source="WSo22nkgQn30hINGjkoU-33" edge="1">
          <mxGeometry width="50" height="50" relative="1" as="geometry">
            <mxPoint x="140" y="270" as="sourcePoint" />
            <mxPoint x="190" y="220" as="targetPoint" />
          </mxGeometry>
        </mxCell>
        <mxCell id="WSo22nkgQn30hINGjkoU-52" value="" style="endArrow=none;html=1;rounded=0;exitX=0.5;exitY=0;exitDx=0;exitDy=0;entryX=0.5;entryY=1;entryDx=0;entryDy=0;" parent="1" source="WSo22nkgQn30hINGjkoU-4" target="WSo22nkgQn30hINGjkoU-33" edge="1">
          <mxGeometry width="50" height="50" relative="1" as="geometry">
            <mxPoint x="140" y="370" as="sourcePoint" />
            <mxPoint x="190" y="340" as="targetPoint" />
          </mxGeometry>
        </mxCell>
        <mxCell id="WSo22nkgQn30hINGjkoU-57" value="" style="endArrow=none;html=1;rounded=0;entryX=0.5;entryY=1;entryDx=0;entryDy=0;exitX=0.3;exitY=0.005;exitDx=0;exitDy=0;exitPerimeter=0;" parent="1" source="WSo22nkgQn30hINGjkoU-15" target="vbP2BYzvC6b8rZJER0x0-17" edge="1">
          <mxGeometry relative="1" as="geometry">
            <mxPoint x="190" y="470" as="sourcePoint" />
            <mxPoint x="490" y="320" as="targetPoint" />
          </mxGeometry>
        </mxCell>
        <mxCell id="WSo22nkgQn30hINGjkoU-64" value="" style="endArrow=none;html=1;rounded=0;entryX=0.12;entryY=1.065;entryDx=0;entryDy=0;entryPerimeter=0;exitX=0.684;exitY=-0.015;exitDx=0;exitDy=0;exitPerimeter=0;" parent="1" source="WSo22nkgQn30hINGjkoU-14" target="WSo22nkgQn30hINGjkoU-4" edge="1">
          <mxGeometry width="50" height="50" relative="1" as="geometry">
            <mxPoint x="120" y="480" as="sourcePoint" />
            <mxPoint x="170" y="430" as="targetPoint" />
          </mxGeometry>
        </mxCell>
        <mxCell id="vbP2BYzvC6b8rZJER0x0-1" value="IDENTIDAD&amp;nbsp;" style="whiteSpace=wrap;html=1;align=center;" vertex="1" parent="1">
          <mxGeometry x="510" y="20" width="100" height="40" as="geometry" />
        </mxCell>
        <mxCell id="vbP2BYzvC6b8rZJER0x0-2" value="Tiene" style="shape=rhombus;perimeter=rhombusPerimeter;whiteSpace=wrap;html=1;align=center;" vertex="1" parent="1">
          <mxGeometry x="364" y="130" width="100" height="50" as="geometry" />
        </mxCell>
        <mxCell id="vbP2BYzvC6b8rZJER0x0-3" value="" style="endArrow=none;html=1;rounded=0;entryX=0;entryY=0.5;entryDx=0;entryDy=0;exitX=1;exitY=0.5;exitDx=0;exitDy=0;" edge="1" parent="1" source="vbP2BYzvC6b8rZJER0x0-2" target="vbP2BYzvC6b8rZJER0x0-1">
          <mxGeometry width="50" height="50" relative="1" as="geometry">
            <mxPoint x="570" y="190" as="sourcePoint" />
            <mxPoint x="620" y="140" as="targetPoint" />
          </mxGeometry>
        </mxCell>
        <mxCell id="vbP2BYzvC6b8rZJER0x0-4" value="" style="endArrow=none;html=1;rounded=0;entryX=0;entryY=0.5;entryDx=0;entryDy=0;exitX=1;exitY=0.25;exitDx=0;exitDy=0;" edge="1" parent="1" source="WSo22nkgQn30hINGjkoU-2" target="vbP2BYzvC6b8rZJER0x0-2">
          <mxGeometry width="50" height="50" relative="1" as="geometry">
            <mxPoint x="320" y="210" as="sourcePoint" />
            <mxPoint x="370" y="160" as="targetPoint" />
          </mxGeometry>
        </mxCell>
        <mxCell id="vbP2BYzvC6b8rZJER0x0-6" value="&lt;u&gt;ID&lt;/u&gt;" style="ellipse;whiteSpace=wrap;html=1;align=center;" vertex="1" parent="1">
          <mxGeometry x="710" y="50" width="100" height="40" as="geometry" />
        </mxCell>
        <mxCell id="vbP2BYzvC6b8rZJER0x0-7" value="contraseña" style="ellipse;whiteSpace=wrap;html=1;align=center;" vertex="1" parent="1">
          <mxGeometry x="650" width="100" height="40" as="geometry" />
        </mxCell>
        <mxCell id="vbP2BYzvC6b8rZJER0x0-8" value="" style="endArrow=none;html=1;rounded=0;entryX=0;entryY=0.5;entryDx=0;entryDy=0;exitX=1;exitY=0.25;exitDx=0;exitDy=0;" edge="1" parent="1" source="vbP2BYzvC6b8rZJER0x0-1" target="vbP2BYzvC6b8rZJER0x0-7">
          <mxGeometry width="50" height="50" relative="1" as="geometry">
            <mxPoint x="650" y="130" as="sourcePoint" />
            <mxPoint x="700" y="80" as="targetPoint" />
          </mxGeometry>
        </mxCell>
        <mxCell id="vbP2BYzvC6b8rZJER0x0-9" value="" style="endArrow=none;html=1;rounded=0;entryX=0;entryY=0;entryDx=0;entryDy=0;exitX=1;exitY=0.5;exitDx=0;exitDy=0;" edge="1" parent="1" source="vbP2BYzvC6b8rZJER0x0-1" target="vbP2BYzvC6b8rZJER0x0-6">
          <mxGeometry width="50" height="50" relative="1" as="geometry">
            <mxPoint x="570" y="150" as="sourcePoint" />
            <mxPoint x="620" y="100" as="targetPoint" />
          </mxGeometry>
        </mxCell>
        <mxCell id="vbP2BYzvC6b8rZJER0x0-10" value="" style="endArrow=none;html=1;rounded=0;entryX=0.242;entryY=0.925;entryDx=0;entryDy=0;entryPerimeter=0;exitX=0.5;exitY=0;exitDx=0;exitDy=0;" edge="1" parent="1" source="WSo22nkgQn30hINGjkoU-46" target="WSo22nkgQn30hINGjkoU-14">
          <mxGeometry width="50" height="50" relative="1" as="geometry">
            <mxPoint x="170" y="500" as="sourcePoint" />
            <mxPoint x="220" y="450" as="targetPoint" />
          </mxGeometry>
        </mxCell>
        <mxCell id="vbP2BYzvC6b8rZJER0x0-11" value="ideologia" style="ellipse;whiteSpace=wrap;html=1;align=center;" vertex="1" parent="1">
          <mxGeometry x="360" y="545" width="100" height="40" as="geometry" />
        </mxCell>
        <mxCell id="vbP2BYzvC6b8rZJER0x0-12" value="&lt;u&gt;nombre&lt;/u&gt;" style="ellipse;whiteSpace=wrap;html=1;align=center;" vertex="1" parent="1">
          <mxGeometry x="180" y="540" width="100" height="40" as="geometry" />
        </mxCell>
        <mxCell id="vbP2BYzvC6b8rZJER0x0-13" value="Pertenece" style="shape=rhombus;perimeter=rhombusPerimeter;whiteSpace=wrap;html=1;align=center;" vertex="1" parent="1">
          <mxGeometry x="260" y="440" width="90" height="50" as="geometry" />
        </mxCell>
        <mxCell id="vbP2BYzvC6b8rZJER0x0-14" value="" style="endArrow=none;html=1;rounded=0;entryX=1;entryY=0.75;entryDx=0;entryDy=0;exitX=0;exitY=0.5;exitDx=0;exitDy=0;" edge="1" parent="1" source="vbP2BYzvC6b8rZJER0x0-13" target="WSo22nkgQn30hINGjkoU-4">
          <mxGeometry width="50" height="50" relative="1" as="geometry">
            <mxPoint x="220" y="470" as="sourcePoint" />
            <mxPoint x="270" y="420" as="targetPoint" />
          </mxGeometry>
        </mxCell>
        <mxCell id="vbP2BYzvC6b8rZJER0x0-15" value="" style="endArrow=none;html=1;rounded=0;entryX=0;entryY=0.5;entryDx=0;entryDy=0;exitX=1;exitY=0.5;exitDx=0;exitDy=0;" edge="1" parent="1" source="vbP2BYzvC6b8rZJER0x0-13" target="WSo22nkgQn30hINGjkoU-38">
          <mxGeometry width="50" height="50" relative="1" as="geometry">
            <mxPoint x="340" y="530" as="sourcePoint" />
            <mxPoint x="390" y="480" as="targetPoint" />
          </mxGeometry>
        </mxCell>
        <mxCell id="vbP2BYzvC6b8rZJER0x0-17" value="Forman" style="shape=rhombus;perimeter=rhombusPerimeter;whiteSpace=wrap;html=1;align=center;" vertex="1" parent="1">
          <mxGeometry x="365" y="320" width="90" height="50" as="geometry" />
        </mxCell>
        <mxCell id="vbP2BYzvC6b8rZJER0x0-19" value="" style="endArrow=none;html=1;rounded=0;entryX=0;entryY=0.5;entryDx=0;entryDy=0;exitX=1;exitY=0.5;exitDx=0;exitDy=0;" edge="1" parent="1" source="vbP2BYzvC6b8rZJER0x0-17" target="WSo22nkgQn30hINGjkoU-5">
          <mxGeometry width="50" height="50" relative="1" as="geometry">
            <mxPoint x="670" y="540" as="sourcePoint" />
            <mxPoint x="720" y="490" as="targetPoint" />
          </mxGeometry>
        </mxCell>
        <mxCell id="vbP2BYzvC6b8rZJER0x0-20" value="" style="endArrow=none;html=1;rounded=0;entryX=0.25;entryY=1;entryDx=0;entryDy=0;exitX=0.73;exitY=0.03;exitDx=0;exitDy=0;exitPerimeter=0;" edge="1" parent="1" source="WSo22nkgQn30hINGjkoU-47" target="WSo22nkgQn30hINGjkoU-38">
          <mxGeometry width="50" height="50" relative="1" as="geometry">
            <mxPoint x="400" y="540" as="sourcePoint" />
            <mxPoint x="450" y="490" as="targetPoint" />
          </mxGeometry>
        </mxCell>
        <mxCell id="vbP2BYzvC6b8rZJER0x0-21" value="" style="endArrow=none;html=1;rounded=0;entryX=0.5;entryY=1;entryDx=0;entryDy=0;exitX=0.5;exitY=0;exitDx=0;exitDy=0;" edge="1" parent="1" source="vbP2BYzvC6b8rZJER0x0-11" target="WSo22nkgQn30hINGjkoU-38">
          <mxGeometry width="50" height="50" relative="1" as="geometry">
            <mxPoint x="510" y="540" as="sourcePoint" />
            <mxPoint x="560" y="490" as="targetPoint" />
          </mxGeometry>
        </mxCell>
        <mxCell id="vbP2BYzvC6b8rZJER0x0-22" value="" style="endArrow=none;html=1;rounded=0;entryX=0;entryY=1;entryDx=0;entryDy=0;exitX=1;exitY=0;exitDx=0;exitDy=0;" edge="1" parent="1" source="vbP2BYzvC6b8rZJER0x0-12" target="WSo22nkgQn30hINGjkoU-38">
          <mxGeometry width="50" height="50" relative="1" as="geometry">
            <mxPoint x="180" y="600" as="sourcePoint" />
            <mxPoint x="230" y="550" as="targetPoint" />
          </mxGeometry>
        </mxCell>
        <mxCell id="vbP2BYzvC6b8rZJER0x0-23" value="" style="endArrow=none;html=1;rounded=0;exitX=1;exitY=0.5;exitDx=0;exitDy=0;entryX=0;entryY=0.5;entryDx=0;entryDy=0;" edge="1" parent="1" source="WSo22nkgQn30hINGjkoU-4" target="vbP2BYzvC6b8rZJER0x0-17">
          <mxGeometry width="50" height="50" relative="1" as="geometry">
            <mxPoint x="360" y="410" as="sourcePoint" />
            <mxPoint x="530" y="380" as="targetPoint" />
          </mxGeometry>
        </mxCell>
        <mxCell id="vbP2BYzvC6b8rZJER0x0-24" value="&lt;u&gt;DNI&lt;/u&gt;" style="ellipse;whiteSpace=wrap;html=1;align=center;" vertex="1" parent="1">
          <mxGeometry x="20" y="250" width="100" height="40" as="geometry" />
        </mxCell>
        <mxCell id="vbP2BYzvC6b8rZJER0x0-25" value="" style="endArrow=none;html=1;rounded=0;entryX=0.674;entryY=0.935;entryDx=0;entryDy=0;entryPerimeter=0;exitX=0.362;exitY=-0.075;exitDx=0;exitDy=0;exitPerimeter=0;" edge="1" parent="1" source="WSo22nkgQn30hINGjkoU-4" target="vbP2BYzvC6b8rZJER0x0-24">
          <mxGeometry width="50" height="50" relative="1" as="geometry">
            <mxPoint x="120" y="370" as="sourcePoint" />
            <mxPoint x="170" y="320" as="targetPoint" />
          </mxGeometry>
        </mxCell>
        <mxCell id="vbP2BYzvC6b8rZJER0x0-26" value="CENTRO VOTACION" style="whiteSpace=wrap;html=1;align=center;" vertex="1" parent="1">
          <mxGeometry x="590" y="470" width="100" height="40" as="geometry" />
        </mxCell>
        <mxCell id="vbP2BYzvC6b8rZJER0x0-27" value="INTERVENTOR" style="whiteSpace=wrap;html=1;align=center;" vertex="1" parent="1">
          <mxGeometry x="700" y="545" width="100" height="40" as="geometry" />
        </mxCell>
        <mxCell id="vbP2BYzvC6b8rZJER0x0-28" value="SUPERVISOR" style="whiteSpace=wrap;html=1;align=center;" vertex="1" parent="1">
          <mxGeometry x="540" y="570" width="100" height="40" as="geometry" />
        </mxCell>
        <mxCell id="vbP2BYzvC6b8rZJER0x0-29" value="Tiene relacion" style="shape=rhombus;perimeter=rhombusPerimeter;whiteSpace=wrap;html=1;align=center;" vertex="1" parent="1">
          <mxGeometry x="635" y="280" width="75" height="50" as="geometry" />
        </mxCell>
        <mxCell id="vbP2BYzvC6b8rZJER0x0-30" value="direccion" style="ellipse;whiteSpace=wrap;html=1;align=center;" vertex="1" parent="1">
          <mxGeometry x="730" y="325" width="100" height="40" as="geometry" />
        </mxCell>
        <mxCell id="vbP2BYzvC6b8rZJER0x0-31" value="nombre" style="ellipse;whiteSpace=wrap;html=1;align=center;" vertex="1" parent="1">
          <mxGeometry x="727" y="390" width="100" height="40" as="geometry" />
        </mxCell>
      </root>
    </mxGraphModel>
  </diagram>
</mxfile>
